<?xml version="1.0" standalone="no"?>
<!DOCTYPE svg PUBLIC "-//W3C//DTD SVG 1.1//EN" "http://www.w3.org/Graphics/SVG/1.1/DTD/svg11.dtd"><svg xmlns="http://www.w3.org/2000/svg" style="background-color:#FFF" width="100" height="125"><path stroke="black" fill="none" stroke-width="1" d="M76.96, 46.43L77.61, 47.21L77.96, 48.08L78.03, 48.99L77.83, 49.87L77.4, 50.67L76.75, 51.31L75.91, 51.74L74.91, 51.9L74.36, 51.9L73.14, 52.15L72.15, 52.82L71.48, 53.81L71.24, 55.02L71.24, 73.25L70.99, 74.47L70.32, 75.46L69.33, 76.13L68.12, 76.37L57.73, 76.37L57.73, 60.4L57.59, 59.71L57.22, 59.15L56.65, 58.77L55.97, 58.63L46.03, 58.63L45.35, 58.77L44.79, 59.15L44.41, 59.71L44.27, 60.4L44.27, 76.37L33.34, 76.37L32.12, 76.13L31.13, 75.46L30.46, 74.47L30.22, 73.25L30.22, 55.02L29.97, 53.81L29.3, 52.82L28.31, 52.15L27.1, 51.9L26.09, 51.74L25.25, 51.31L24.61, 50.67L24.17, 49.88L23.98, 49L24.04, 48.09L24.39, 47.21L25.04, 46.43L48.9, 25.55L49.87, 24.97L50.95, 24.78L52.03, 24.97L53, 25.55L76.96, 46.43"/></svg>